<svg width="100" height="125" viewBox="0 0 100 125" fill="none" xmlns="http://www.w3.org/2000/svg">
<g id="noun-close-1217829 1">
<g id="Group">
<path id="Vector" d="M22 78C23 79 24.3 79.5 25.5 79.5C26.7 79.5 28.1 79 29 78L50 57L71 78C72 79 73.3 79.5 74.5 79.5C75.7 79.5 77.1 79 78 78C80 76 80 72.9 78 70.9L57 49.9L78 28.9C80 26.9 80 23.8 78 21.8C76 19.8 72.9 19.8 70.9 21.8L49.9 42.8L29 22C27 20 23.9 20 21.9 22C19.9 24 19.9 27.1 21.9 29.1L42.9 50.1L22 71C20 72.9 20 76.1 22 78Z" fill="#FFDF0A" fill-opacity="0.94"/>
</g>
</g>
</svg>
