<svg width="57" height="45" viewBox="0 0 57 45" fill="none" xmlns="http://www.w3.org/2000/svg">
<g id="email">
<path id="Vector" d="M50.2953 44.1964H6.70472C4.9827 44.1945 3.33173 43.5119 2.11408 42.2982C0.896422 41.0846 0.211533 39.439 0.209686 37.7227V7.07774C0.211533 5.36136 0.896422 3.71581 2.11408 2.50215C3.33173 1.28849 4.9827 0.605845 6.70472 0.604004H50.2953C52.0173 0.605845 53.6683 1.28849 54.8859 2.50215C56.1036 3.71581 56.7885 5.36136 56.7903 7.07774V37.7227C56.7885 39.439 56.1036 41.0846 54.8859 42.2982C53.6683 43.5119 52.0173 44.1945 50.2953 44.1964ZM6.70472 4.404C5.99348 4.40469 5.31157 4.68661 4.80865 5.18789C4.30572 5.68916 4.02288 6.36883 4.02219 7.07774V37.7227C4.02288 38.4316 4.30572 39.1112 4.80865 39.6125C5.31157 40.1138 5.99348 40.3957 6.70472 40.3964H50.2953C51.0065 40.3957 51.6884 40.1138 52.1914 39.6125C52.6943 39.1112 52.9771 38.4316 52.9778 37.7227V7.07774C52.9771 6.36883 52.6943 5.68916 52.1914 5.18789C51.6884 4.68661 51.0065 4.40469 50.2953 4.404H6.70472ZM48.0772 37.4573C47.8201 37.4579 47.5656 37.4063 47.3291 37.3059C47.0927 37.2054 46.8791 37.0581 46.7015 36.8729L35.4166 25.15C34.4356 26.1668 33.6528 26.9758 33.1846 27.4563C31.937 28.689 30.251 29.38 28.4942 29.3786C26.7375 29.3772 25.0526 28.6836 23.8069 27.4489C23.349 26.9795 22.5671 26.1705 21.5833 25.1499L10.2985 36.8729C9.94829 37.2359 9.46782 37.4456 8.96263 37.4558C8.45744 37.466 7.96886 37.2758 7.60423 36.9271C7.23961 36.5785 7.02878 36.0998 7.01806 35.5963C7.00734 35.0927 7.19762 34.6056 7.54707 34.2418L18.9399 22.4076C14.9474 18.2574 11.1498 14.3077 7.54707 10.5586C7.2088 10.1928 7.02792 9.70936 7.04326 9.2121C7.0586 8.71485 7.26895 8.24341 7.62913 7.89901C7.98931 7.55461 8.47062 7.36469 8.96971 7.37004C9.46881 7.3754 9.94591 7.57558 10.2986 7.92763C14.8306 12.6483 23.9943 22.1809 26.55 24.8086C26.8045 25.0646 27.1073 25.2679 27.4408 25.407C27.7744 25.5461 28.1323 25.6181 28.4939 25.619C28.8554 25.6198 29.2136 25.5495 29.5479 25.412C29.8821 25.2746 30.1859 25.0726 30.4416 24.8179C33.0549 22.1239 42.1408 12.6782 46.7015 7.92752C47.0543 7.57582 47.5313 7.37595 48.0302 7.37077C48.5291 7.3656 49.0102 7.55554 49.3702 7.89984C49.7303 8.24415 49.9406 8.71539 49.956 9.21246C49.9714 9.70953 49.7908 10.1928 49.4528 10.5587C45.8499 14.3075 42.0388 18.2721 38.0592 22.4076L49.4529 34.2418C49.7057 34.5127 49.8743 34.8508 49.9382 35.2152C50.0022 35.5796 49.9587 35.9547 49.8131 36.295C49.6675 36.6353 49.426 36.9262 49.1179 37.1325C48.8098 37.3388 48.4483 37.4516 48.0772 37.4573Z" fill="#2B2B2B"/>
</g>
</svg>
