<svg width="83" height="68" viewBox="0 0 83 68" fill="none" xmlns="http://www.w3.org/2000/svg">
<path id="Vector" d="M6.08007 0C2.89892 0 0.320068 2.68619 0.320068 6C0.320068 9.31359 2.89892 12 6.08007 12H77.1201C80.3012 12 82.8801 9.31359 82.8801 6C82.8801 2.68619 80.3012 0 77.1201 0H6.08007ZM6.08007 28C2.89892 28 0.320068 30.6862 0.320068 34C0.320068 37.3136 2.89892 40 6.08007 40H77.1201C80.3012 40 82.8801 37.3136 82.8801 34C82.8801 30.6862 80.3012 28 77.1201 28H6.08007ZM6.08007 56C2.89892 56 0.320068 58.6862 0.320068 62C0.320068 65.3136 2.89892 68 6.08007 68H77.1201C80.3012 68 82.8801 65.3136 82.8801 62C82.8801 58.6862 80.3012 56 77.1201 56H6.08007Z" fill="#FFDF0A"/>
</svg>
