<svg width="80" height="61" viewBox="0 0 80 61" fill="none" xmlns="http://www.w3.org/2000/svg">
<g id="noun-office-1336755 1">
<g id="Group">
<path id="Vector" d="M15.7219 19.2121C17.5159 19.2121 18.9702 17.7526 18.9702 15.9522C18.9702 14.1519 17.5159 12.6924 15.7219 12.6924C13.9279 12.6924 12.4736 14.1519 12.4736 15.9522C12.4736 17.7526 13.9279 19.2121 15.7219 19.2121Z" fill="#2B2B2B"/>
<path id="Vector_2" d="M27.156 19.2121C28.95 19.2121 30.4043 17.7526 30.4043 15.9522C30.4043 14.1519 28.95 12.6924 27.156 12.6924C25.362 12.6924 23.9077 14.1519 23.9077 15.9522C23.9077 17.7526 25.362 19.2121 27.156 19.2121Z" fill="#2B2B2B"/>
<path id="Vector_3" d="M15.7219 30.1652C17.5159 30.1652 18.9702 28.7057 18.9702 26.9054C18.9702 25.105 17.5159 23.6455 15.7219 23.6455C13.9279 23.6455 12.4736 25.105 12.4736 26.9054C12.4736 28.7057 13.9279 30.1652 15.7219 30.1652Z" fill="#2B2B2B"/>
<path id="Vector_4" d="M27.156 30.1652C28.95 30.1652 30.4043 28.7057 30.4043 26.9054C30.4043 25.105 28.95 23.6455 27.156 23.6455C25.362 23.6455 23.9077 25.105 23.9077 26.9054C23.9077 28.7057 25.362 30.1652 27.156 30.1652Z" fill="#2B2B2B"/>
<path id="Vector_5" d="M15.7219 41.1183C17.5159 41.1183 18.9702 39.6589 18.9702 37.8585C18.9702 36.0581 17.5159 34.5986 15.7219 34.5986C13.9279 34.5986 12.4736 36.0581 12.4736 37.8585C12.4736 39.6589 13.9279 41.1183 15.7219 41.1183Z" fill="#2B2B2B"/>
<path id="Vector_6" d="M27.156 41.1183C28.95 41.1183 30.4043 39.6589 30.4043 37.8585C30.4043 36.0581 28.95 34.5986 27.156 34.5986C25.362 34.5986 23.9077 36.0581 23.9077 37.8585C23.9077 39.6589 25.362 41.1183 27.156 41.1183Z" fill="#2B2B2B"/>
<path id="Vector_7" d="M42.8779 30.8171H49.3745C50.414 30.8171 51.3235 29.9043 51.3235 28.8612C51.3235 27.818 50.414 26.9053 49.3745 26.9053H42.8779C41.8384 26.9053 40.9289 27.818 40.9289 28.8612C40.9289 29.9043 41.8384 30.8171 42.8779 30.8171Z" fill="#2B2B2B"/>
<path id="Vector_8" d="M42.8779 37.3371H49.3745C50.414 37.3371 51.3235 36.4244 51.3235 35.3812C51.3235 34.3381 50.414 33.4253 49.3745 33.4253H42.8779C41.8384 33.4253 40.9289 34.3381 40.9289 35.3812C40.9289 36.4244 41.8384 37.3371 42.8779 37.3371Z" fill="#2B2B2B"/>
<path id="Vector_9" d="M42.8779 43.8567H49.3745C50.414 43.8567 51.3235 42.9439 51.3235 41.9007C51.3235 40.8576 50.414 39.9448 49.3745 39.9448H42.8779C41.8384 39.9448 40.9289 40.8576 40.9289 41.9007C40.9289 42.9439 41.8384 43.8567 42.8779 43.8567Z" fill="#2B2B2B"/>
<path id="Vector_10" d="M59.1195 47.638H57.1705V24.819C57.1705 21.5591 54.5718 18.9512 51.3235 18.9512H40.9289C40.2792 18.9512 39.6295 19.0816 38.9799 19.3424V7.86774C38.9799 4.60788 36.3812 2 33.1329 2H9.74497C6.49665 2 3.89799 4.60788 3.89799 7.86774V47.638H1.94899C0.90953 47.638 0 48.5507 0 49.5939C0 50.637 0.90953 51.5498 1.94899 51.5498H59.1195C60.1589 51.5498 61.0685 50.637 61.0685 49.5939C61.0685 48.5507 60.1589 47.638 59.1195 47.638ZM40.9289 22.8631H51.3235C52.363 22.8631 53.2725 23.7758 53.2725 24.819V47.638H38.9799V24.819C38.9799 23.7758 39.8894 22.8631 40.9289 22.8631ZM7.79597 7.86774C7.79597 6.82459 8.70551 5.91183 9.74497 5.91183H33.1329C34.1724 5.91183 35.0819 6.82459 35.0819 7.86774V24.819V47.638H7.79597V7.86774Z" fill="#2B2B2B"/>
</g>
</g>
</svg>
