<svg width="222" height="238" viewBox="0 0 222 238" fill="none" xmlns="http://www.w3.org/2000/svg">
<g id="Vector" filter="url(#filter0_d_39_13)">
<path d="M110.712 65.0124C109.862 65.0869 109.068 65.4877 108.484 66.1372C98.176 77.4761 83.4123 82.6258 68.3781 83.0093C67.4757 83.029 66.6166 83.4169 65.985 84.0897C65.3535 84.7626 64.9999 85.6669 65 86.6086C65 130.846 83.5698 164.324 109.994 172.844C110.65 173.052 111.35 173.052 112.006 172.844C138.43 164.324 157 130.846 157 86.6086C157 85.6669 156.646 84.7626 156.015 84.0897C155.383 83.4169 154.524 83.029 153.622 83.0093C138.588 82.6258 123.824 77.4761 113.516 66.1372C113.16 65.7415 112.723 65.4347 112.238 65.2399C111.752 65.0452 111.231 64.9674 110.712 65.0124ZM111 73.5234C121.737 83.8955 135.771 88.8101 149.92 89.8331C149.027 129.577 132.268 157.922 111 165.495C89.7315 157.922 72.9729 129.577 72.0797 89.8331C86.2292 88.8101 100.263 83.8955 111 73.5234ZM130.406 102.168C129.513 102.225 128.675 102.642 128.07 103.331L106.364 127.064L96.1937 116.453C95.8728 116.119 95.4918 115.853 95.0725 115.672C94.6532 115.491 94.2038 115.397 93.75 115.397C93.2962 115.397 92.8467 115.491 92.4275 115.672C92.0082 115.853 91.6272 116.119 91.3062 116.453C90.9853 116.788 90.7308 117.186 90.5571 117.623C90.3834 118.061 90.294 118.529 90.294 119.003C90.294 119.476 90.3834 119.945 90.5571 120.383C90.7308 120.82 90.9853 121.218 91.3062 121.553L103.956 134.75C104.282 135.087 104.669 135.352 105.094 135.53C105.52 135.709 105.975 135.797 106.433 135.79C106.891 135.783 107.344 135.681 107.764 135.49C108.184 135.298 108.563 135.021 108.88 134.675L133.03 108.28C133.513 107.763 133.837 107.107 133.958 106.396C134.08 105.685 133.993 104.952 133.71 104.293C133.428 103.634 132.961 103.079 132.372 102.7C131.783 102.321 131.098 102.136 130.406 102.168Z" fill="url(#paint0_linear_39_13)"/>
<path d="M110.712 65.0124C109.862 65.0869 109.068 65.4877 108.484 66.1372C98.176 77.4761 83.4123 82.6258 68.3781 83.0093C67.4757 83.029 66.6166 83.4169 65.985 84.0897C65.3535 84.7626 64.9999 85.6669 65 86.6086C65 130.846 83.5698 164.324 109.994 172.844C110.65 173.052 111.35 173.052 112.006 172.844C138.43 164.324 157 130.846 157 86.6086C157 85.6669 156.646 84.7626 156.015 84.0897C155.383 83.4169 154.524 83.029 153.622 83.0093C138.588 82.6258 123.824 77.4761 113.516 66.1372C113.16 65.7415 112.723 65.4347 112.238 65.2399C111.752 65.0452 111.231 64.9674 110.712 65.0124ZM111 73.5234C121.737 83.8955 135.771 88.8101 149.92 89.8331C149.027 129.577 132.268 157.922 111 165.495C89.7315 157.922 72.9729 129.577 72.0797 89.8331C86.2292 88.8101 100.263 83.8955 111 73.5234ZM130.406 102.168C129.513 102.225 128.675 102.642 128.07 103.331L106.364 127.064L96.1937 116.453C95.8728 116.119 95.4918 115.853 95.0725 115.672C94.6532 115.491 94.2038 115.397 93.75 115.397C93.2962 115.397 92.8467 115.491 92.4275 115.672C92.0082 115.853 91.6272 116.119 91.3062 116.453C90.9853 116.788 90.7308 117.186 90.5571 117.623C90.3834 118.061 90.294 118.529 90.294 119.003C90.294 119.476 90.3834 119.945 90.5571 120.383C90.7308 120.82 90.9853 121.218 91.3062 121.553L103.956 134.75C104.282 135.087 104.669 135.352 105.094 135.53C105.52 135.709 105.975 135.797 106.433 135.79C106.891 135.783 107.344 135.681 107.764 135.49C108.184 135.298 108.563 135.021 108.88 134.675L133.03 108.28C133.513 107.763 133.837 107.107 133.958 106.396C134.08 105.685 133.993 104.952 133.71 104.293C133.428 103.634 132.961 103.079 132.372 102.7C131.783 102.321 131.098 102.136 130.406 102.168Z" stroke="url(#paint1_linear_39_13)" stroke-width="5"/>
</g>
<defs>
<filter id="filter0_d_39_13" x="0.599998" y="0.599998" width="220.8" height="236.8" filterUnits="userSpaceOnUse" color-interpolation-filters="sRGB">
<feFlood flood-opacity="0" result="BackgroundImageFix"/>
<feColorMatrix in="SourceAlpha" type="matrix" values="0 0 0 0 0 0 0 0 0 0 0 0 0 0 0 0 0 0 127 0" result="hardAlpha"/>
<feOffset/>
<feGaussianBlur stdDeviation="30.95"/>
<feComposite in2="hardAlpha" operator="out"/>
<feColorMatrix type="matrix" values="0 0 0 0 1 0 0 0 0 1 0 0 0 0 1 0 0 0 0.7 0"/>
<feBlend mode="hard-light" in2="BackgroundImageFix" result="effect1_dropShadow_39_13"/>
<feBlend mode="normal" in="SourceGraphic" in2="effect1_dropShadow_39_13" result="shape"/>
</filter>
<linearGradient id="paint0_linear_39_13" x1="111" y1="65" x2="111" y2="173" gradientUnits="userSpaceOnUse">
<stop stop-color="#FFDF0A"/>
<stop offset="1" stop-color="#FF9201"/>
</linearGradient>
<linearGradient id="paint1_linear_39_13" x1="111" y1="65" x2="111" y2="173" gradientUnits="userSpaceOnUse">
<stop stop-color="#FFDF0A"/>
<stop offset="1" stop-color="#FF9201"/>
</linearGradient>
</defs>
</svg>
