<svg width="59" height="73" viewBox="0 0 59 73" fill="none" xmlns="http://www.w3.org/2000/svg">
<g id="noun-phone-1995477 1">
<g id="Group">
<g id="Group_2">
<g id="Group_3">
<path id="Vector" d="M37.642 14.2495C36.403 13.9575 35.223 14.8919 35.341 16.1767C35.4 16.9943 35.99 17.6367 36.757 17.8119C37.76 18.0455 38.704 18.5711 39.471 19.3303C40.238 20.0895 40.769 21.0239 41.005 22.0167C41.182 22.7759 41.89 23.3599 42.657 23.4183C43.896 23.5351 44.899 22.3671 44.604 21.1407C44.191 19.5055 43.365 17.9871 42.126 16.7023C40.828 15.4759 39.294 14.5999 37.642 14.2495Z" fill="#2B2B2B"/>
<path id="Vector_2" d="M36.521 10.5704C39.471 10.804 42.362 12.0304 44.604 14.2496C46.846 16.4688 48.085 19.3304 48.321 22.2504C48.38 23.1264 49.147 23.8272 50.032 23.944C51.153 24.0024 52.097 23.068 52.038 21.9C51.684 18.1624 50.091 14.5416 47.2 11.68C44.309 8.81843 40.651 7.24163 36.816 6.89123C35.695 6.77443 34.692 7.70883 34.751 8.87683C34.869 9.75283 35.577 10.512 36.521 10.5704Z" fill="#2B2B2B"/>
<path id="Vector_3" d="M55.991 39.6535L48.734 32.4703C47.731 31.4775 46.492 30.9519 45.135 30.8935C43.719 30.8935 42.421 31.4191 41.359 32.4703C39.884 33.9303 37.17 38.0767 36.757 38.7775C36.226 39.4783 35.459 39.8871 34.633 39.9455C33.748 40.0039 32.922 39.7119 32.332 39.1279L19.47 26.3967C18.88 25.8127 18.526 24.9367 18.644 24.1191C18.703 23.3015 19.116 22.5423 19.824 22.0167C20.532 21.6079 24.78 18.8631 26.196 17.4615C27.199 16.4687 27.789 15.1255 27.73 13.7823C27.73 12.4391 27.14 11.1543 26.196 10.1615L18.939 2.97832C17.051 1.10952 14.042 0.934322 11.918 2.62792C10.03 4.14632 7.847 6.19032 6.962 7.06632C3.422 10.5703 1.475 15.1839 1.475 20.1479C1.475 25.1119 3.422 29.7255 6.962 33.2295L25.488 51.5671C29.028 55.0711 33.689 56.9983 38.704 56.9983C43.66 56.9983 48.38 55.0711 51.92 51.5671C52.805 50.6911 54.811 48.5303 56.404 46.6615C58.056 44.5591 57.879 41.5807 55.991 39.6535ZM14.278 5.48952C14.573 5.25592 14.868 5.13912 15.222 5.13912C15.576 5.13912 15.989 5.25592 16.225 5.54792L23.482 12.7311C23.777 13.0231 23.954 13.3735 23.954 13.7239C23.954 14.0743 23.777 14.4247 23.482 14.7751C23.01 15.2423 22.066 15.9431 20.945 16.7023L11.8 7.65032C12.567 6.94952 13.511 6.19032 14.278 5.48952ZM28.084 48.8807L9.617 30.6015C6.785 27.7983 5.251 24.1191 5.251 20.1479C5.251 16.4687 6.608 12.9647 9.086 10.2783L17.818 18.9215H17.759L17.7 18.9799C16.107 20.0895 15.104 21.8999 14.927 23.8271C14.75 25.7543 15.458 27.6815 16.874 29.0831L29.677 41.7559C31.093 43.1575 32.981 43.8583 34.987 43.6831C36.934 43.5079 38.763 42.5151 39.884 40.9383L39.943 40.8215C39.943 40.8215 39.943 40.8215 39.943 40.7631L48.675 49.4063C45.902 51.8591 42.421 53.2023 38.704 53.2023C34.692 53.2023 30.916 51.6839 28.084 48.8807ZM53.454 44.2671C52.805 45.0847 51.979 45.9607 51.271 46.7783L42.067 37.6095C42.834 36.4999 43.601 35.5655 44.014 35.0983C44.309 34.8063 44.663 34.6311 45.076 34.6311C45.43 34.6311 45.784 34.8063 46.079 35.0983L53.336 42.2815C53.867 42.8071 53.926 43.6831 53.454 44.2671Z" fill="#2B2B2B"/>
</g>
</g>
</g>
</g>
</svg>
