<svg width="52" height="51" viewBox="0 0 52 51" fill="none" xmlns="http://www.w3.org/2000/svg">
<g id="icons8-instagram (1) 1">
<path id="Vector" d="M17.3333 6.375C11.3512 6.375 6.5 11.1329 6.5 17V34C6.5 39.8671 11.3512 44.625 17.3333 44.625H34.6667C40.6488 44.625 45.5 39.8671 45.5 34V17C45.5 11.1329 40.6488 6.375 34.6667 6.375H17.3333ZM39 10.625C40.196 10.625 41.1667 11.577 41.1667 12.75C41.1667 13.923 40.196 14.875 39 14.875C37.804 14.875 36.8333 13.923 36.8333 12.75C36.8333 11.577 37.804 10.625 39 10.625ZM26 14.875C31.9822 14.875 36.8333 19.6329 36.8333 25.5C36.8333 31.3671 31.9822 36.125 26 36.125C20.0178 36.125 15.1667 31.3671 15.1667 25.5C15.1667 19.6329 20.0178 14.875 26 14.875ZM26 19.125C24.2761 19.125 22.6228 19.7966 21.4038 20.9922C20.1848 22.1877 19.5 23.8092 19.5 25.5C19.5 27.1908 20.1848 28.8123 21.4038 30.0078C22.6228 31.2034 24.2761 31.875 26 31.875C27.7239 31.875 29.3772 31.2034 30.5962 30.0078C31.8152 28.8123 32.5 27.1908 32.5 25.5C32.5 23.8092 31.8152 22.1877 30.5962 20.9922C29.3772 19.7966 27.7239 19.125 26 19.125Z" fill="white"/>
</g>
</svg>
