<svg width="54" height="54" viewBox="0 0 54 54" fill="none" xmlns="http://www.w3.org/2000/svg">
<g id="icons8-youtube 1">
<path id="Vector" d="M48.5595 13.9185C48.042 11.9835 46.5165 10.458 44.5815 9.9405C41.0715 9 27 9 27 9C27 9 12.9285 9 9.4185 9.9405C7.4835 10.458 5.958 11.9835 5.4405 13.9185C4.5 17.4285 4.5 27 4.5 27C4.5 27 4.5 36.5715 5.4405 40.0815C5.958 42.0165 7.4835 43.542 9.4185 44.0595C12.9285 45 27 45 27 45C27 45 41.0715 45 44.5815 44.0595C46.5187 43.542 48.042 42.0165 48.5595 40.0815C49.5 36.5715 49.5 27 49.5 27C49.5 27 49.5 17.4285 48.5595 13.9185ZM22.5 32.8455V21.1545C22.5 20.2883 23.4382 19.7483 24.1875 20.1803L34.3125 26.0258C35.0618 26.4578 35.0618 27.5422 34.3125 27.9742L24.1875 33.8197C23.4382 34.254 22.5 33.7117 22.5 32.8455Z" fill="white"/>
</g>
</svg>
