<svg width="219" height="240" viewBox="0 0 219 240" fill="none" xmlns="http://www.w3.org/2000/svg">
<g id="temp" filter="url(#filter0_d_19_13)">
<path d="M89.5523 66.3944C92.7518 66.3944 95.5687 67.1342 98.0031 68.6138C100.438 70.0934 102.342 72.1736 103.715 74.8543C105.003 77.3675 105.687 80.2632 105.768 83.5413L105.776 84.202L105.724 128.016C105.724 128.712 105.802 129.261 105.958 129.661C106.115 130.061 106.454 130.505 106.976 130.993C109.932 133.673 112.166 136.667 113.679 139.975C115.192 143.282 115.948 146.816 115.948 150.576C115.948 154.266 115.261 157.704 113.888 160.89C112.514 164.075 110.627 166.878 108.228 169.297C105.828 171.717 103.028 173.606 99.8289 174.963C96.6294 176.321 93.2039 177 89.5523 177C85.8659 177 82.423 176.321 79.2235 174.963C76.024 173.606 73.2071 171.717 70.7727 169.297C68.3383 166.878 66.4342 164.075 65.0605 160.89C63.6868 157.704 63 154.266 63 150.576C63 146.816 63.7651 143.273 65.2953 139.949C66.8255 136.624 69.0686 133.639 72.0246 130.993C72.5463 130.505 72.8854 130.061 73.0419 129.661C73.176 129.318 73.2527 128.866 73.2718 128.305L73.2766 128.016L73.2245 84.202C73.2245 80.6509 73.9113 77.535 75.285 74.8543C76.6587 72.1736 78.5627 70.0934 80.9971 68.6138C83.4315 67.1342 86.2833 66.3944 89.5523 66.3944ZM89.5523 74.3843C87.0831 74.3843 85.0834 75.3069 83.5533 77.1521C82.1131 78.8887 81.3506 81.1804 81.2659 84.0273L81.258 84.5676V131.358C81.258 132.368 81.0928 133.151 80.7624 133.708C80.432 134.265 79.8843 134.805 79.1192 135.327C76.5457 137.033 74.546 139.218 73.1201 141.881C71.6943 144.544 70.9813 147.425 70.9813 150.524C70.9813 153.935 71.816 157.043 73.4853 159.845C75.1546 162.648 77.3977 164.893 80.2147 166.582C83.0316 168.27 86.1441 169.115 89.5523 169.115C92.9257 169.115 96.0121 168.27 98.8117 166.582C101.611 164.893 103.837 162.648 105.489 159.845C107.141 157.043 107.967 153.935 107.967 150.524C107.967 147.425 107.263 144.544 105.854 141.881C104.446 139.218 102.437 137.033 99.8289 135.327C99.0638 134.805 98.5161 134.265 98.1857 133.708C97.892 133.213 97.7289 132.539 97.6962 131.686L97.6901 131.358V84.5676C97.6901 81.4691 96.9424 78.9973 95.447 77.1521C93.9516 75.3069 91.9867 74.3843 89.5523 74.3843ZM89.5001 122.272C90.4391 122.272 91.239 122.637 91.8997 123.368C92.5004 124.033 92.8281 124.928 92.8827 126.053L92.8909 126.397V136.215C92.8909 137.399 93.0474 138.225 93.3604 138.695C93.6734 139.165 94.2298 139.609 95.0297 140.027C96.8729 141.071 98.3857 142.499 99.5681 144.309C100.751 146.12 101.342 148.174 101.342 150.471C101.342 152.699 100.811 154.71 99.7507 156.503C98.69 158.296 97.2641 159.732 95.4731 160.811C93.6821 161.891 91.6911 162.43 89.5001 162.43C87.3092 162.43 85.3182 161.891 83.5272 160.811C81.7361 159.732 80.3016 158.296 79.2235 156.503C78.1454 154.71 77.6064 152.699 77.6064 150.471C77.6064 148.174 78.1976 146.12 79.38 144.309C80.5624 142.499 82.11 141.071 84.0227 140.027C84.8226 139.609 85.379 139.165 85.692 138.695C85.9737 138.272 86.1287 137.56 86.1568 136.559L86.1615 136.215V126.397C86.1615 125.109 86.4745 124.099 87.1005 123.368C87.7265 122.637 88.5264 122.272 89.5001 122.272ZM123.199 63C124.069 63 124.755 63.3046 125.26 63.9139C125.708 64.4554 125.957 65.1002 126.007 65.848L126.016 66.1333L125.912 73.3921L131.65 70.0499C132.345 69.667 133.041 69.5451 133.737 69.6844C134.432 69.8236 134.971 70.224 135.354 70.8855C135.701 71.547 135.762 72.2171 135.536 72.896C135.335 73.4995 134.935 73.9998 134.336 74.3969L134.102 74.541L125.86 79.3454L125.703 96.0563L140.049 87.6486L140.101 78.1965C140.101 77.3262 140.318 76.6212 140.753 76.0815C141.188 75.5419 141.822 75.2721 142.657 75.2721C143.387 75.2721 143.996 75.5332 144.483 76.0554C144.909 76.5124 145.148 77.0626 145.202 77.7061L145.213 77.9876V84.6198L151.682 80.8076C152.377 80.3898 153.099 80.268 153.846 80.4421C154.594 80.6161 155.177 81.0513 155.594 81.7476C156.011 82.4787 156.107 83.2185 155.881 83.967C155.68 84.6324 155.252 85.1808 154.598 85.6123L154.342 85.7687L147.926 89.4242L153.664 92.7664C154.325 93.1145 154.768 93.6367 154.994 94.333C155.22 95.0293 155.159 95.6908 154.811 96.3175C154.394 97.0137 153.829 97.4228 153.116 97.5447C152.492 97.6513 151.875 97.5513 151.265 97.2448L151.003 97.1008L142.709 92.3486L128.311 100.495L142.553 108.59L150.847 103.837C151.577 103.42 152.29 103.28 152.986 103.42C153.681 103.559 154.238 103.977 154.655 104.673C155.003 105.3 155.072 105.961 154.864 106.657C154.678 107.276 154.3 107.758 153.73 108.102L153.507 108.224L147.769 111.566L154.29 115.222C155.055 115.674 155.568 116.275 155.829 117.023C156.09 117.772 156.011 118.529 155.594 119.295C155.142 119.991 154.542 120.409 153.794 120.548C153.14 120.67 152.479 120.579 151.812 120.274L151.525 120.131L145.109 116.318L145.057 122.951C145.057 123.682 144.822 124.317 144.352 124.857C143.883 125.396 143.265 125.666 142.5 125.666C141.701 125.666 141.075 125.388 140.622 124.831C140.227 124.343 140.004 123.762 139.955 123.088L139.944 122.794V113.29L125.703 104.934L125.86 121.488L134.102 126.345C134.797 126.763 135.275 127.302 135.536 127.964C135.797 128.625 135.719 129.304 135.302 130C134.919 130.662 134.38 131.062 133.684 131.202C133.076 131.323 132.481 131.245 131.899 130.967L131.65 130.836L125.912 127.546L126.016 134.805C126.016 135.675 125.764 136.424 125.26 137.05C124.755 137.677 124.069 137.99 123.199 137.99C122.33 137.99 121.652 137.686 121.165 137.076C120.732 136.535 120.491 135.876 120.443 135.101L120.434 134.805V127.494L116.261 129.896C115.67 129.339 115.079 128.686 114.487 127.938C113.995 127.314 113.611 126.696 113.335 126.085L113.183 125.718L120.486 121.488L120.643 104.934L111.671 110.261V104.151L118.087 100.495L111.671 96.7874V90.7297L120.643 96.0563L120.486 79.3454L112.297 74.541C111.566 74.1232 111.079 73.5749 110.836 72.896C110.592 72.2171 110.662 71.547 111.045 70.8855C111.427 70.224 111.966 69.8236 112.662 69.6844C113.27 69.5625 113.866 69.6406 114.448 69.9186L114.696 70.0499L120.434 73.3921V66.1333C120.434 65.2629 120.678 64.5231 121.165 63.9139C121.652 63.3046 122.33 63 123.199 63Z" fill="url(#paint0_linear_19_13)"/>
<path d="M89.5523 66.3944C92.7518 66.3944 95.5687 67.1342 98.0031 68.6138C100.438 70.0934 102.342 72.1736 103.715 74.8543C105.003 77.3675 105.687 80.2632 105.768 83.5413L105.776 84.202L105.724 128.016C105.724 128.712 105.802 129.261 105.958 129.661C106.115 130.061 106.454 130.505 106.976 130.993C109.932 133.673 112.166 136.667 113.679 139.975C115.192 143.282 115.948 146.816 115.948 150.576C115.948 154.266 115.261 157.704 113.888 160.89C112.514 164.075 110.627 166.878 108.228 169.297C105.828 171.717 103.028 173.606 99.8289 174.963C96.6294 176.321 93.2039 177 89.5523 177C85.8659 177 82.423 176.321 79.2235 174.963C76.024 173.606 73.2071 171.717 70.7727 169.297C68.3383 166.878 66.4342 164.075 65.0605 160.89C63.6868 157.704 63 154.266 63 150.576C63 146.816 63.7651 143.273 65.2953 139.949C66.8255 136.624 69.0686 133.639 72.0246 130.993C72.5463 130.505 72.8854 130.061 73.0419 129.661C73.176 129.318 73.2527 128.866 73.2718 128.305L73.2766 128.016L73.2245 84.202C73.2245 80.6509 73.9113 77.535 75.285 74.8543C76.6587 72.1736 78.5627 70.0934 80.9971 68.6138C83.4315 67.1342 86.2833 66.3944 89.5523 66.3944ZM89.5523 74.3843C87.0831 74.3843 85.0834 75.3069 83.5533 77.1521C82.1131 78.8887 81.3506 81.1804 81.2659 84.0273L81.258 84.5676V131.358C81.258 132.368 81.0928 133.151 80.7624 133.708C80.432 134.265 79.8843 134.805 79.1192 135.327C76.5457 137.033 74.546 139.218 73.1201 141.881C71.6943 144.544 70.9813 147.425 70.9813 150.524C70.9813 153.935 71.816 157.043 73.4853 159.845C75.1546 162.648 77.3977 164.893 80.2147 166.582C83.0316 168.27 86.1441 169.115 89.5523 169.115C92.9257 169.115 96.0121 168.27 98.8117 166.582C101.611 164.893 103.837 162.648 105.489 159.845C107.141 157.043 107.967 153.935 107.967 150.524C107.967 147.425 107.263 144.544 105.854 141.881C104.446 139.218 102.437 137.033 99.8289 135.327C99.0638 134.805 98.5161 134.265 98.1857 133.708C97.892 133.213 97.7289 132.539 97.6962 131.686L97.6901 131.358V84.5676C97.6901 81.4691 96.9424 78.9973 95.447 77.1521C93.9516 75.3069 91.9867 74.3843 89.5523 74.3843ZM89.5001 122.272C90.4391 122.272 91.239 122.637 91.8997 123.368C92.5004 124.033 92.8281 124.928 92.8827 126.053L92.8909 126.397V136.215C92.8909 137.399 93.0474 138.225 93.3604 138.695C93.6734 139.165 94.2298 139.609 95.0297 140.027C96.8729 141.071 98.3857 142.499 99.5681 144.309C100.751 146.12 101.342 148.174 101.342 150.471C101.342 152.699 100.811 154.71 99.7507 156.503C98.69 158.296 97.2641 159.732 95.4731 160.811C93.6821 161.891 91.6911 162.43 89.5001 162.43C87.3092 162.43 85.3182 161.891 83.5272 160.811C81.7361 159.732 80.3016 158.296 79.2235 156.503C78.1454 154.71 77.6064 152.699 77.6064 150.471C77.6064 148.174 78.1976 146.12 79.38 144.309C80.5624 142.499 82.11 141.071 84.0227 140.027C84.8226 139.609 85.379 139.165 85.692 138.695C85.9737 138.272 86.1287 137.56 86.1568 136.559L86.1615 136.215V126.397C86.1615 125.109 86.4745 124.099 87.1005 123.368C87.7265 122.637 88.5264 122.272 89.5001 122.272ZM123.199 63C124.069 63 124.755 63.3046 125.26 63.9139C125.708 64.4554 125.957 65.1002 126.007 65.848L126.016 66.1333L125.912 73.3921L131.65 70.0499C132.345 69.667 133.041 69.5451 133.737 69.6844C134.432 69.8236 134.971 70.224 135.354 70.8855C135.701 71.547 135.762 72.2171 135.536 72.896C135.335 73.4995 134.935 73.9998 134.336 74.3969L134.102 74.541L125.86 79.3454L125.703 96.0563L140.049 87.6486L140.101 78.1965C140.101 77.3262 140.318 76.6212 140.753 76.0815C141.188 75.5419 141.822 75.2721 142.657 75.2721C143.387 75.2721 143.996 75.5332 144.483 76.0554C144.909 76.5124 145.148 77.0626 145.202 77.7061L145.213 77.9876V84.6198L151.682 80.8076C152.377 80.3898 153.099 80.268 153.846 80.4421C154.594 80.6161 155.177 81.0513 155.594 81.7476C156.011 82.4787 156.107 83.2185 155.881 83.967C155.68 84.6324 155.252 85.1808 154.598 85.6123L154.342 85.7687L147.926 89.4242L153.664 92.7664C154.325 93.1145 154.768 93.6367 154.994 94.333C155.22 95.0293 155.159 95.6908 154.811 96.3175C154.394 97.0137 153.829 97.4228 153.116 97.5447C152.492 97.6513 151.875 97.5513 151.265 97.2448L151.003 97.1008L142.709 92.3486L128.311 100.495L142.553 108.59L150.847 103.837C151.577 103.42 152.29 103.28 152.986 103.42C153.681 103.559 154.238 103.977 154.655 104.673C155.003 105.3 155.072 105.961 154.864 106.657C154.678 107.276 154.3 107.758 153.73 108.102L153.507 108.224L147.769 111.566L154.29 115.222C155.055 115.674 155.568 116.275 155.829 117.023C156.09 117.772 156.011 118.529 155.594 119.295C155.142 119.991 154.542 120.409 153.794 120.548C153.14 120.67 152.479 120.579 151.812 120.274L151.525 120.131L145.109 116.318L145.057 122.951C145.057 123.682 144.822 124.317 144.352 124.857C143.883 125.396 143.265 125.666 142.5 125.666C141.701 125.666 141.075 125.388 140.622 124.831C140.227 124.343 140.004 123.762 139.955 123.088L139.944 122.794V113.29L125.703 104.934L125.86 121.488L134.102 126.345C134.797 126.763 135.275 127.302 135.536 127.964C135.797 128.625 135.719 129.304 135.302 130C134.919 130.662 134.38 131.062 133.684 131.202C133.076 131.323 132.481 131.245 131.899 130.967L131.65 130.836L125.912 127.546L126.016 134.805C126.016 135.675 125.764 136.424 125.26 137.05C124.755 137.677 124.069 137.99 123.199 137.99C122.33 137.99 121.652 137.686 121.165 137.076C120.732 136.535 120.491 135.876 120.443 135.101L120.434 134.805V127.494L116.261 129.896C115.67 129.339 115.079 128.686 114.487 127.938C113.995 127.314 113.611 126.696 113.335 126.085L113.183 125.718L120.486 121.488L120.643 104.934L111.671 110.261V104.151L118.087 100.495L111.671 96.7874V90.7297L120.643 96.0563L120.486 79.3454L112.297 74.541C111.566 74.1232 111.079 73.5749 110.836 72.896C110.592 72.2171 110.662 71.547 111.045 70.8855C111.427 70.224 111.966 69.8236 112.662 69.6844C113.27 69.5625 113.866 69.6406 114.448 69.9186L114.696 70.0499L120.434 73.3921V66.1333C120.434 65.2629 120.678 64.5231 121.165 63.9139C121.652 63.3046 122.33 63 123.199 63Z" stroke="url(#paint1_linear_19_13)" stroke-width="2"/>
</g>
<defs>
<filter id="filter0_d_19_13" x="0.0999985" y="0.0999985" width="218.8" height="239.8" filterUnits="userSpaceOnUse" color-interpolation-filters="sRGB">
<feFlood flood-opacity="0" result="BackgroundImageFix"/>
<feColorMatrix in="SourceAlpha" type="matrix" values="0 0 0 0 0 0 0 0 0 0 0 0 0 0 0 0 0 0 127 0" result="hardAlpha"/>
<feOffset/>
<feGaussianBlur stdDeviation="30.95"/>
<feComposite in2="hardAlpha" operator="out"/>
<feColorMatrix type="matrix" values="0 0 0 0 1 0 0 0 0 1 0 0 0 0 1 0 0 0 0.7 0"/>
<feBlend mode="hard-light" in2="BackgroundImageFix" result="effect1_dropShadow_19_13"/>
<feBlend mode="normal" in="SourceGraphic" in2="effect1_dropShadow_19_13" result="shape"/>
</filter>
<linearGradient id="paint0_linear_19_13" x1="109.5" y1="63" x2="109.5" y2="177" gradientUnits="userSpaceOnUse">
<stop stop-color="#FFDF0A"/>
<stop offset="1" stop-color="#FF9201"/>
</linearGradient>
<linearGradient id="paint1_linear_19_13" x1="109.5" y1="63" x2="109.5" y2="177" gradientUnits="userSpaceOnUse">
<stop stop-color="#FFDF0A"/>
<stop offset="1" stop-color="#FF9201"/>
</linearGradient>
</defs>
</svg>
