<svg width="772" height="705" viewBox="0 0 772 705" fill="none" xmlns="http://www.w3.org/2000/svg">
<g filter="url(#filter0_d_19_11)">
<path d="M402.58 351.447C426.837 335.493 446.613 314.257 460.216 289.556C473.819 264.856 480.843 237.428 480.686 209.621C480.686 115.403 401.95 39 304.898 39C207.76 39 129.052 115.403 129.052 209.621C128.895 237.428 135.919 264.856 149.521 289.556C163.124 314.257 182.901 335.493 207.158 351.447C109.819 389.097 41 481.378 41 589.267C41 595.376 41.344 601.297 41.8312 607.298H41.8599C41.7603 613.503 44.2886 619.492 48.8892 623.948C53.4898 628.404 59.7863 630.962 66.3952 631.061C79.924 631.061 90.8731 620.404 90.8731 607.298C90.8731 606.545 90.7298 605.872 90.6438 605.145C90.1011 599.867 89.8046 594.57 89.7553 589.267C89.7553 474.004 186.033 380.512 304.869 380.512C423.647 380.512 519.925 474.004 519.925 589.267C519.925 594.865 519.553 600.301 519.037 605.737C519.037 606.006 518.951 606.276 518.951 606.518L518.979 606.787L518.951 607.298H519.037C519.438 620.081 530.187 630.335 543.486 630.335C556.757 630.335 567.477 620.054 567.907 607.298H567.964C568.423 601.297 568.738 595.376 568.738 589.267C568.738 481.378 499.947 389.097 402.58 351.447ZM304.898 332.178C235.104 332.178 178.581 277.305 178.581 209.621C178.581 141.938 235.133 87.0377 304.898 87.0377C374.634 87.0377 431.186 141.938 431.186 209.621C431.186 277.305 374.634 332.178 304.898 332.178ZM700.242 546.289L700.214 546.693L700.242 546.881C700.242 546.962 700.156 547.043 700.128 547.177C699.583 560.068 688.777 570.348 675.42 570.348C672.103 570.303 668.828 569.643 665.782 568.407C662.737 567.171 659.981 565.384 657.673 563.146C655.364 560.909 653.549 558.266 652.33 555.368C651.111 552.471 650.513 549.377 650.57 546.262C650.57 456.296 587.197 382.423 497.826 373.569C497.74 373.569 497.654 373.461 497.54 373.407C482.434 372.842 470.339 360.812 470.339 346.011C470.339 331.425 482.09 319.637 496.88 318.695C496.966 318.695 497.024 318.588 497.081 318.561C541.508 310.675 575.187 272.945 575.187 227.572C575.187 186.854 548.101 152.299 510.495 139.92C510.381 139.893 507.543 139.247 505.451 138.386C499.447 137.401 494.013 134.443 490.121 130.039C486.229 125.636 484.134 120.075 484.212 114.353C484.212 100.897 495.476 89.9711 509.377 89.9711C510.094 89.9711 510.839 90.1057 511.556 90.1864C512.102 89.9817 512.701 89.9349 513.276 90.0518C578.311 104.773 626.694 161.288 626.694 228.836C626.84 252.099 620.966 275.046 609.578 295.705C598.189 316.364 581.627 334.117 561.314 347.437C642.63 378.87 700.242 456 700.242 546.289Z" fill="#FFDF0A"/>
</g>
<defs>
<filter id="filter0_d_19_11" x="0" y="0" width="771.242" height="704.061" filterUnits="userSpaceOnUse" color-interpolation-filters="sRGB">
<feFlood flood-opacity="0" result="BackgroundImageFix"/>
<feColorMatrix in="SourceAlpha" type="matrix" values="0 0 0 0 0 0 0 0 0 0 0 0 0 0 0 0 0 0 127 0" result="hardAlpha"/>
<feOffset dx="15" dy="17"/>
<feGaussianBlur stdDeviation="28"/>
<feComposite in2="hardAlpha" operator="out"/>
<feColorMatrix type="matrix" values="0 0 0 0 1 0 0 0 0 0.870588 0 0 0 0 0 0 0 0 0.46 0"/>
<feBlend mode="normal" in2="BackgroundImageFix" result="effect1_dropShadow_19_11"/>
<feBlend mode="normal" in="SourceGraphic" in2="effect1_dropShadow_19_11" result="shape"/>
</filter>
</defs>
</svg>
