<svg width="95" height="92" viewBox="0 0 95 92" fill="none" xmlns="http://www.w3.org/2000/svg">
<g id="Vector" filter="url(#filter0_d_8_33)">
<path d="M66.1073 26.2903V22.6129L62.4299 22.2043C62.2256 22.2043 60.9998 22 58.9568 22C50.5805 22 44.4515 24.4516 40.9784 28.7419C38.3225 27.1075 34.6451 26.086 30.3548 26.086C28.3118 26.086 26.8817 26.2903 26.8817 26.2903L23 26.9032L23.2043 30.3763C23.4086 36.5053 26.4731 48.1504 37.0967 48.1504H37.5053V55.0966C29.7419 56.1181 23.2043 58.774 23.2043 58.774V62.86H64.0643V58.774C64.0643 58.774 57.5267 56.1181 49.7633 55.0966V48.559C62.6342 48.3547 66.1073 33.8494 66.1073 26.2903ZM43.6343 54.688H41.5913V43.2472C41.5913 43.2472 41.1827 36.301 35.4623 36.301C35.4623 36.301 38.5268 37.9354 39.344 43.8601C38.5268 44.0644 37.7096 44.0644 37.0967 44.0644C27.6989 44.0644 27.2903 30.3763 27.2903 30.3763C27.2903 30.3763 28.5161 30.172 30.3548 30.172C34.2365 30.172 40.5698 30.9892 42.4085 36.5053C43.43 27.3118 53.8493 26.086 58.9568 26.086C60.7955 26.086 62.0213 26.2903 62.0213 26.2903C62.0213 26.2903 62.0213 44.6773 49.1504 44.6773H47.7203C47.7203 40.5913 51.8063 34.4623 51.8063 34.4623C45.6773 36.5053 45.6773 44.473 45.6773 44.473V54.688H43.6343Z" fill="white"/>
<path d="M66.1073 26.2903V22.6129L62.4299 22.2043C62.2256 22.2043 60.9998 22 58.9568 22C50.5805 22 44.4515 24.4516 40.9784 28.7419C38.3225 27.1075 34.6451 26.086 30.3548 26.086C28.3118 26.086 26.8817 26.2903 26.8817 26.2903L23 26.9032L23.2043 30.3763C23.4086 36.5053 26.4731 48.1504 37.0967 48.1504H37.5053V55.0966C29.7419 56.1181 23.2043 58.774 23.2043 58.774V62.86H64.0643V58.774C64.0643 58.774 57.5267 56.1181 49.7633 55.0966V48.559C62.6342 48.3547 66.1073 33.8494 66.1073 26.2903ZM43.6343 54.688H41.5913V43.2472C41.5913 43.2472 41.1827 36.301 35.4623 36.301C35.4623 36.301 38.5268 37.9354 39.344 43.8601C38.5268 44.0644 37.7096 44.0644 37.0967 44.0644C27.6989 44.0644 27.2903 30.3763 27.2903 30.3763C27.2903 30.3763 28.5161 30.172 30.3548 30.172C34.2365 30.172 40.5698 30.9892 42.4085 36.5053C43.43 27.3118 53.8493 26.086 58.9568 26.086C60.7955 26.086 62.0213 26.2903 62.0213 26.2903C62.0213 26.2903 62.0213 44.6773 49.1504 44.6773H47.7203C47.7203 40.5913 51.8063 34.4623 51.8063 34.4623C45.6773 36.5053 45.6773 44.473 45.6773 44.473V54.688H43.6343Z" stroke="white" stroke-width="1.5"/>
</g>
<defs>
<filter id="filter0_d_8_33" x="0.811365" y="0.85" width="93.4459" height="91.16" filterUnits="userSpaceOnUse" color-interpolation-filters="sRGB">
<feFlood flood-opacity="0" result="BackgroundImageFix"/>
<feColorMatrix in="SourceAlpha" type="matrix" values="0 0 0 0 0 0 0 0 0 0 0 0 0 0 0 0 0 0 127 0" result="hardAlpha"/>
<feOffset dx="3" dy="4"/>
<feGaussianBlur stdDeviation="12.2"/>
<feComposite in2="hardAlpha" operator="out"/>
<feColorMatrix type="matrix" values="0 0 0 0 1 0 0 0 0 1 0 0 0 0 1 0 0 0 1 0"/>
<feBlend mode="normal" in2="BackgroundImageFix" result="effect1_dropShadow_8_33"/>
<feBlend mode="normal" in="SourceGraphic" in2="effect1_dropShadow_8_33" result="shape"/>
</filter>
</defs>
</svg>
