<svg width="102" height="122" viewBox="0 0 102 122" fill="none" xmlns="http://www.w3.org/2000/svg">
<g id="Group" filter="url(#filter0_d_8_17)">
<path id="Vector" d="M57.8581 89.7077L56.0347 92.4413C56.5294 92.7714 57.1046 92.961 57.6987 92.9898C58.2928 93.0187 58.8836 92.8857 59.4081 92.6051C59.9325 92.3245 60.371 91.9068 60.6766 91.3965C60.9823 90.8862 61.1437 90.3026 61.1436 89.7077H57.8581ZM48.0016 83.1368L49.8251 80.4032C49.2852 80.043 48.6507 79.8508 48.0016 79.8508C47.3526 79.8508 46.7181 80.043 46.1782 80.4032L48.0016 83.1368ZM38.1452 89.7077H34.8597C34.8596 90.3026 35.021 90.8862 35.3266 91.3965C35.6323 91.9068 36.0707 92.3245 36.5952 92.6051C37.1197 92.8857 37.7105 93.0187 38.3046 92.9898C38.8987 92.961 39.4738 92.7714 39.9686 92.4413L38.1452 89.7077ZM59.6815 86.9775L49.8251 80.4065L46.1782 85.8736L56.0347 92.4413L59.6815 86.9775ZM46.1782 80.4065L36.3217 86.9775L39.9686 92.4413L49.8251 85.8736L46.1782 80.4065ZM50.5052 28.7226L50.6432 28.8901L55.647 24.6321L55.509 24.4678L50.5052 28.7226ZM58.939 32.3234L59.1526 32.3103L58.6269 25.7558L58.4133 25.7755L58.939 32.3234ZM62.6911 35.8488L62.6746 36.059L69.2259 36.588L69.2423 36.3744L62.6911 35.8488ZM66.1112 44.3549L66.2755 44.4962L70.5335 39.4891L70.3692 39.3544L66.1112 44.3549ZM66.2755 49.5L66.1112 49.6412L70.3692 54.645L70.5335 54.507L66.2755 49.5ZM62.6746 57.9338L62.6911 58.1507L69.2423 57.6217L69.2259 57.4114L62.6746 57.9338ZM59.1526 61.6891L58.939 61.6727L58.4133 68.2239L58.6269 68.2371L59.1526 61.6891ZM50.6432 65.106L50.5052 65.2736L55.509 69.5316L55.647 69.3673L50.6432 65.106ZM45.4981 65.2736L45.3601 65.106L40.3563 69.3673L40.4943 69.5316L45.4981 65.2736ZM37.0643 61.6727L36.8507 61.6891L37.3764 68.2371L37.5899 68.2239L37.0643 61.6727ZM33.3122 58.1507L33.3287 57.9371L26.7774 57.4114L26.761 57.625L33.3122 58.1507ZM29.892 49.6412L29.7278 49.5032L25.4698 54.507L25.6341 54.645L29.892 49.6412ZM29.7278 44.4962L29.892 44.3549L25.6341 39.3544L25.4698 39.4891L29.7278 44.4962ZM33.3287 36.059L33.3122 35.8488L26.761 36.3744L26.7774 36.588L33.3287 36.059ZM36.8507 32.3103L37.0643 32.3267L37.5899 25.7755L37.3764 25.7558L36.8507 32.3103ZM45.3601 28.8901L45.4981 28.7226L40.4943 24.4678L40.3563 24.6321L45.3601 28.8901ZM37.0643 32.3267C38.6204 32.4518 40.184 32.2022 41.6263 31.6047C43.0686 31.0072 44.3483 30.0757 45.3601 28.8868L40.3563 24.6288C40.0187 25.0249 39.5919 25.3351 39.1109 25.5339C38.6299 25.7326 38.1086 25.8176 37.5899 25.7755L37.0643 32.3267ZM33.3122 35.8488C33.2741 35.3744 33.3394 34.8941 33.5037 34.4475C33.668 34.0008 33.9274 33.5952 34.2639 33.2587C34.6005 32.9222 35.0061 32.6628 35.4527 32.4985C35.8993 32.3342 36.3763 32.2688 36.8507 32.307L37.3764 25.7558C35.9535 25.6417 34.5229 25.8381 33.1834 26.3313C31.8439 26.8245 30.6275 27.6027 29.6183 28.6122C28.6091 29.6217 27.8313 30.8383 27.3385 32.178C26.8457 33.5176 26.6465 34.9483 26.761 36.3712L33.3122 35.8488ZM29.892 44.3549C31.0809 43.3431 32.0125 42.0633 32.6099 40.6211C33.2074 39.1788 33.4538 37.6152 33.3287 36.059L26.7774 36.588C26.8195 37.1067 26.7379 37.6247 26.5391 38.1057C26.3403 38.5866 26.0301 39.0168 25.6341 39.3544L29.892 44.3549ZM29.7278 49.5032C29.3648 49.1948 29.0733 48.8079 28.8734 48.3756C28.6734 47.9433 28.5699 47.4727 28.5699 46.9964C28.5699 46.5201 28.6734 46.0495 28.8734 45.6173C29.0733 45.185 29.3648 44.8013 29.7278 44.4929L25.4698 39.4891C24.3821 40.4144 23.5085 41.565 22.9094 42.8612C22.3103 44.1575 22 45.5684 22 46.9964C22 48.4244 22.3103 49.8354 22.9094 51.1316C23.5085 52.4279 24.3821 53.5785 25.4698 54.5038L29.7278 49.5032ZM33.3287 57.9371C33.4538 56.381 33.2074 54.8141 32.6099 53.3718C32.0125 51.9295 31.0809 50.6498 29.892 49.638L25.6341 54.6417C26.0301 54.9794 26.3403 55.4062 26.5391 55.8872C26.7379 56.3681 26.8195 56.8894 26.7774 57.4081L33.3287 57.9371ZM36.8507 61.6858C36.3763 61.724 35.8993 61.6587 35.4527 61.4944C35.0061 61.33 34.6005 61.0706 34.2639 60.7341C33.9274 60.3976 33.668 59.992 33.5037 59.5454C33.3394 59.0987 33.2741 58.6217 33.3122 58.1474L26.761 57.625C26.6469 59.0478 26.8433 60.4752 27.3365 61.8147C27.8297 63.1542 28.608 64.3706 29.6174 65.3797C30.6269 66.3889 31.8436 67.1668 33.1832 67.6596C34.5229 68.1523 35.9536 68.3483 37.3764 68.2338L36.8507 61.6858ZM50.5052 65.267C50.1968 65.6299 49.8131 65.9215 49.3808 66.1214C48.9485 66.3213 48.4779 66.4249 48.0016 66.4249C47.5254 66.4249 47.0548 66.3213 46.6225 66.1214C46.1902 65.9215 45.8065 65.6299 45.4981 65.267L40.4943 69.5283C41.4196 70.6159 42.5702 71.4896 43.8664 72.0887C45.1627 72.6878 46.5736 72.9981 48.0016 72.9981C49.4296 72.9981 50.8406 72.6878 52.1368 72.0887C53.4331 71.4896 54.5837 70.6159 55.509 69.5283L50.5052 65.2736M62.6911 58.1507C62.7293 58.6253 62.6672 59.1026 62.5027 59.5495C62.3381 59.9964 62.0785 60.4022 61.7416 60.7388C61.4047 61.0753 60.9987 61.3346 60.5516 61.4987C60.1046 61.6628 59.6272 61.7278 59.1526 61.6891L58.6269 68.2371C60.0498 68.3511 61.4804 68.158 62.8199 67.6648C64.1594 67.1716 65.3758 66.3934 66.385 65.3839C67.3941 64.3744 68.172 63.1578 68.6648 61.8181C69.1576 60.4785 69.3535 59.0478 69.239 57.625L62.6911 58.1507ZM66.1112 49.6412C64.9224 50.653 63.9875 51.9328 63.3901 53.3751C62.7926 54.8174 62.5462 56.381 62.6713 57.9371L69.2259 57.4114C69.1837 56.8927 69.2621 56.3714 69.4609 55.8904C69.6597 55.4095 69.9699 54.9826 70.3659 54.645L66.1112 49.6412ZM66.2755 44.4962C66.6384 44.8046 66.9267 45.1883 67.1266 45.6205C67.3266 46.0528 67.4301 46.5234 67.4301 46.9997C67.4301 47.476 67.3266 47.9466 67.1266 48.3789C66.9267 48.8112 66.6352 49.1948 66.2722 49.5032L70.5335 54.507C71.6212 53.5817 72.4915 52.4312 73.0906 51.1349C73.6897 49.8387 74 48.4277 74 46.9997C74 45.5717 73.6897 44.1608 73.0906 42.8645C72.4915 41.5683 71.6179 40.4177 70.5302 39.4924L66.2755 44.4962ZM62.6713 36.0623C62.5462 37.6185 62.7926 39.182 63.3901 40.6243C63.9875 42.0666 64.9191 43.3464 66.108 44.3582L70.3659 39.3544C69.9699 39.0168 69.6597 38.5899 69.4609 38.109C69.2621 37.628 69.1837 37.1067 69.2259 36.588L62.6713 36.0623ZM59.1493 32.3103C59.6237 32.2721 60.1007 32.3375 60.5473 32.5018C60.9939 32.6661 61.3995 32.9255 61.7361 33.262C62.0726 33.5985 62.332 34.0041 62.4963 34.4508C62.6606 34.8974 62.7259 35.3744 62.6878 35.8488L69.2423 36.3744C69.3563 34.9516 69.1567 33.521 68.6635 32.1815C68.1703 30.842 67.392 29.6256 66.3826 28.6164C65.3731 27.6072 64.1564 26.8293 62.8168 26.3366C61.4771 25.8438 60.0464 25.6479 58.6236 25.7623L59.1493 32.3103ZM50.6432 28.8901C51.655 30.079 52.9314 31.0105 54.3737 31.608C55.816 32.2055 57.3796 32.4518 58.9357 32.3267L58.4133 25.7755C57.8946 25.8176 57.3701 25.7359 56.8891 25.5371C56.4081 25.3384 55.9846 25.0282 55.647 24.6321L50.6432 28.8901ZM55.5024 24.4678C54.5771 23.3807 53.4267 22.5076 52.1308 21.9089C50.8348 21.3101 49.4243 21 47.9967 21C46.5691 21 45.1586 21.3101 43.8627 21.9089C42.5667 22.5076 41.4163 23.3807 40.491 24.4678L45.4948 28.7258C45.8032 28.3629 46.1869 28.0714 46.6192 27.8714C47.0515 27.6715 47.5221 27.568 47.9984 27.568C48.4746 27.568 48.9452 27.6715 49.3775 27.8714C49.8098 28.0714 50.1935 28.3629 50.5019 28.7258L55.509 24.4678M45.3601 65.106C44.4825 64.0746 43.4017 63.2383 42.1853 62.6431C40.9688 62.0478 39.6427 61.7097 38.2897 61.6497L38.0006 68.2141C38.4514 68.2342 38.8932 68.347 39.2985 68.5454C39.7038 68.7438 40.0639 69.0236 40.3563 69.3673L45.3601 65.106ZM38.2897 61.6497C37.8812 61.632 37.4719 61.6397 37.0643 61.6727L37.5899 68.2239C37.7265 68.2121 37.8637 68.2088 38.0006 68.2141L38.2897 61.6497ZM41.4307 89.7077V64.9286H34.8597V89.7077H41.4307ZM58.939 61.6694C58.5303 61.6363 58.1232 61.6286 57.7135 61.6464L58.0027 68.2108C58.1396 68.2055 58.2768 68.2088 58.4133 68.2207L58.939 61.6694ZM57.7103 61.6464C56.3573 61.7064 55.0312 62.0445 53.8147 62.6398C52.5983 63.235 51.5208 64.0746 50.6432 65.106L55.6437 69.364C55.9364 69.0209 56.2966 68.7418 56.7019 68.5439C57.1072 68.3461 57.5488 68.2338 57.9994 68.2141L57.7103 61.6464ZM54.5693 64.9319V89.7077H61.1403V64.9286L54.5693 64.9319Z" fill="white"/>
<path id="Vector_2" d="M54.5726 43.7109L44.7162 53.5674L41.4307 50.2819" stroke="white" stroke-width="6" stroke-linecap="round" stroke-linejoin="round"/>
</g>
<defs>
<filter id="filter0_d_8_17" x="0.6" y="0.6" width="100.8" height="120.794" filterUnits="userSpaceOnUse" color-interpolation-filters="sRGB">
<feFlood flood-opacity="0" result="BackgroundImageFix"/>
<feColorMatrix in="SourceAlpha" type="matrix" values="0 0 0 0 0 0 0 0 0 0 0 0 0 0 0 0 0 0 127 0" result="hardAlpha"/>
<feOffset dx="3" dy="4"/>
<feGaussianBlur stdDeviation="12.2"/>
<feComposite in2="hardAlpha" operator="out"/>
<feColorMatrix type="matrix" values="0 0 0 0 1 0 0 0 0 1 0 0 0 0 1 0 0 0 1 0"/>
<feBlend mode="normal" in2="BackgroundImageFix" result="effect1_dropShadow_8_17"/>
<feBlend mode="normal" in="SourceGraphic" in2="effect1_dropShadow_8_17" result="shape"/>
</filter>
</defs>
</svg>
