<svg width="208" height="212" viewBox="0 0 208 212" fill="none" xmlns="http://www.w3.org/2000/svg">
<path id="Vector" d="M130.688 63.9039C125.107 59.7859 118.7 56.9264 111.908 55.522C105.115 54.1177 98.0997 54.2021 91.3432 55.7692C84.5868 57.3364 78.2502 60.3492 72.7698 64.6001C67.2894 68.8511 62.7953 74.2393 59.597 80.3936C56.3987 86.548 54.5721 93.3224 54.2431 100.25C53.914 107.178 55.0902 114.095 57.6908 120.525C60.2913 126.955 64.2545 132.745 69.3073 137.496C74.3601 142.248 80.3825 145.847 86.96 148.048M102.128 37.6959V5.67993M56.288 56.6559L33.68 34.0479M37.328 102.496H5.312M56.288 148.336L33.68 170.944M160.928 5.67993L56.624 206.32M156.8 108.784C156.617 110.045 156.188 111.257 155.537 112.352C154.885 113.447 154.025 114.402 153.004 115.164C151.983 115.927 150.822 116.48 149.588 116.794C148.353 117.107 147.069 117.175 145.808 116.992C144.547 116.809 143.335 116.38 142.24 115.728C141.145 115.077 140.19 114.217 139.427 113.196C138.665 112.175 138.112 111.014 137.798 109.78C137.485 108.545 137.417 107.261 137.6 106C138.368 100.72 147.2 83.2959 150.608 83.8239C154.016 84.3519 157.472 103.504 156.8 108.784ZM192.896 108.784C192.527 111.33 191.161 113.625 189.1 115.164C187.039 116.704 184.45 117.361 181.904 116.992C179.358 116.623 177.063 115.257 175.524 113.196C173.984 111.134 173.327 108.546 173.696 106C174.464 100.72 183.296 83.2959 186.704 83.8239C190.112 84.3519 193.712 103.504 192.896 108.784ZM130.112 163.6C129.929 164.861 129.5 166.073 128.849 167.168C128.197 168.263 127.337 169.218 126.316 169.98C125.295 170.743 124.134 171.296 122.9 171.61C121.665 171.923 120.381 171.991 119.12 171.808C117.859 171.625 116.647 171.196 115.552 170.544C114.457 169.893 113.502 169.033 112.739 168.012C111.977 166.991 111.424 165.83 111.11 164.596C110.797 163.361 110.729 162.077 110.912 160.816C111.68 155.536 120.512 138.112 123.92 138.64C127.328 139.168 130.88 158.416 130.112 163.6ZM166.4 163.6C166.217 164.861 165.788 166.073 165.137 167.168C164.485 168.263 163.625 169.218 162.604 169.98C161.583 170.743 160.422 171.296 159.188 171.61C157.953 171.923 156.669 171.991 155.408 171.808C154.147 171.625 152.935 171.196 151.84 170.544C150.745 169.893 149.79 169.033 149.027 168.012C148.265 166.991 147.712 165.83 147.398 164.596C147.085 163.361 147.017 162.077 147.2 160.816C147.968 155.536 156.8 138.112 160.208 138.64C163.616 139.168 167.12 158.416 166.4 163.6ZM202.544 163.6C202.361 164.861 201.932 166.073 201.281 167.168C200.629 168.263 199.769 169.218 198.748 169.98C197.727 170.743 196.566 171.296 195.332 171.61C194.097 171.923 192.813 171.991 191.552 171.808C190.291 171.625 189.079 171.196 187.984 170.544C186.889 169.893 185.934 169.033 185.172 168.012C184.409 166.991 183.856 165.83 183.542 164.596C183.229 163.361 183.161 162.077 183.344 160.816C184.112 155.536 192.944 138.112 196.352 138.64C199.76 139.168 203.312 158.416 202.544 163.6Z" stroke="url(#paint0_linear_136_2)" stroke-width="10" stroke-linecap="round" stroke-linejoin="round"/>
<defs>
<linearGradient id="paint0_linear_136_2" x1="108.776" y1="5.67993" x2="108.776" y2="206.32" gradientUnits="userSpaceOnUse">
<stop stop-color="#FFDF0A"/>
<stop offset="1" stop-color="#FF9201"/>
</linearGradient>
</defs>
</svg>
