<svg width="180" height="154" viewBox="0 0 180 154" fill="none" xmlns="http://www.w3.org/2000/svg">
<g id="Frame 10">
<path id="Vector" d="M97.1673 94.0056H83.7429V86.1318H97.1673H97.9173V85.3818V72.9338C97.9173 65.3821 99.7725 60.556 102.703 57.5787C105.632 54.6036 110.014 53.0377 116.306 53.0377C120.802 53.0377 122.855 53.2719 124.574 53.4823V59.741H118.65C114.58 59.741 111.235 61.9598 109.496 64.9231C107.787 67.8352 107.278 71.2699 107.278 74.6764V85.3766V86.1266H108.028H123.849L122.601 94.0004H108.028H107.278V94.7504V141V141.856L108.127 141.743L111.222 141.333C111.222 141.333 111.222 141.333 111.222 141.333C140.854 137.408 163.75 112.624 163.75 82.5936C163.75 49.8339 136.502 23.25 103 23.25C69.4978 23.25 42.25 49.8339 42.25 82.5936C42.25 112.334 64.709 136.92 93.9263 141.206L97.0576 141.669L97.9173 141.796V140.927V94.7556V94.0056H97.1673ZM131.088 79.2999H114.233V74.6764C114.233 71.9766 114.743 69.6537 115.52 68.33C115.932 67.6287 116.282 67.2214 116.702 66.969C117.118 66.7186 117.692 66.5677 118.65 66.5677H130.779H131.529V65.8177V47.9961V47.3386L130.877 47.2526L128.512 46.9405L128.512 46.9405L128.444 46.9315C126.754 46.708 122.995 46.211 116.306 46.211C108.811 46.211 102.259 48.2055 97.7035 52.8331C93.1496 57.4588 90.9627 64.2867 90.9627 72.9338V79.3051H77.5383H76.7883V80.0551V100.082V100.832H77.5383H90.9627V133.522C67.0704 128.164 49.2045 107.533 49.2045 82.5936C49.2045 53.5744 73.2404 30.0767 103 30.0767C132.76 30.0767 156.795 53.5744 156.795 82.5936C156.795 107.815 138.531 128.639 114.233 133.703V100.827H127.918H128.559L128.659 100.194L131.828 80.1672L131.966 79.2999H131.088Z" fill="url(#paint0_linear_98_17)" stroke="url(#paint1_linear_98_17)" stroke-width="1.5"/>
</g>
<defs>
<linearGradient id="paint0_linear_98_17" x1="103" y1="24" x2="103" y2="141" gradientUnits="userSpaceOnUse">
<stop stop-color="#FFDF0A"/>
<stop offset="1" stop-color="#FF9201"/>
</linearGradient>
<linearGradient id="paint1_linear_98_17" x1="103" y1="24" x2="103" y2="141" gradientUnits="userSpaceOnUse">
<stop stop-color="#FFDF0A"/>
<stop offset="1" stop-color="#FF9201"/>
</linearGradient>
</defs>
</svg>
