<svg width="134" height="134" viewBox="0 0 134 134" fill="none" xmlns="http://www.w3.org/2000/svg">
<g id="icons8-whatsapp 1">
<path id="Vector" d="M67 11.1611C36.2143 11.1611 11.1667 36.2088 11.1667 66.9944C11.1667 76.138 13.5751 84.6847 17.4806 92.3048L11.4284 113.973C10.0187 119.007 14.9966 123.985 20.0324 122.577L41.7169 116.525C49.3308 120.422 57.865 122.828 67 122.828C97.7857 122.828 122.833 97.7801 122.833 66.9944C122.833 36.2088 97.7857 11.1611 67 11.1611ZM67 19.5361C93.2592 19.5361 114.458 40.7352 114.458 66.9944C114.458 93.2537 93.2592 114.453 67 114.453C58.6206 114.453 50.7821 112.274 43.9469 108.466C42.9835 107.929 41.8471 107.794 40.7845 108.09L20.1633 113.842L25.9211 93.2317C26.2185 92.1675 26.0833 91.0288 25.5449 90.0639C21.7294 83.2237 19.5417 75.3821 19.5417 66.9944C19.5417 40.7352 40.7408 19.5361 67 19.5361ZM48.129 41.8749C47.2385 41.8749 45.7995 42.2089 44.574 43.5434C43.3512 44.8722 39.9067 48.0951 39.9067 54.6555C39.9067 61.2159 44.681 67.5515 45.3482 68.4448C46.0126 69.3298 54.5697 83.2266 68.1232 88.5699C79.3848 93.0086 81.6753 92.1247 84.1208 91.9013C86.5663 91.6836 92.0117 88.6811 93.1228 85.5656C94.2339 82.4501 94.2346 79.7852 93.9079 79.2352C93.5757 78.6797 92.6852 78.343 91.3507 77.6758C90.0191 77.0086 83.4679 73.785 82.2451 73.3411C81.0224 72.8972 80.1285 72.6719 79.2408 74.0063C78.3531 75.3407 75.7995 78.342 75.0206 79.2298C74.2417 80.1231 73.4652 80.2351 72.1308 79.5678C70.7936 78.8951 66.5033 77.4906 61.4058 72.9485C57.4416 69.4171 54.7747 65.0519 53.9959 63.7175C53.2198 62.3887 53.9121 61.6583 54.5793 60.9967C55.1795 60.3993 55.9131 59.4419 56.5803 58.6631C57.242 57.8842 57.4614 57.3317 57.9053 56.4439C58.3492 55.559 58.1284 54.7775 57.7962 54.1103C57.464 53.443 54.8715 46.8467 53.6851 44.2086C52.6884 41.992 51.6382 41.9439 50.6862 41.9076C49.9101 41.8769 49.0167 41.8749 48.129 41.8749Z" fill="url(#paint0_linear_68_14)"/>
</g>
<defs>
<linearGradient id="paint0_linear_68_14" x1="67" y1="11.1611" x2="67" y2="122.828" gradientUnits="userSpaceOnUse">
<stop stop-color="#FFDF0A"/>
<stop offset="1" stop-color="#FF9201"/>
</linearGradient>
</defs>
</svg>
