<svg width="148" height="148" viewBox="0 0 148 148" fill="none" xmlns="http://www.w3.org/2000/svg">
<g id="icons8-instagram 1">
<path id="Vector" d="M50.875 15.4167C31.3464 15.4167 15.4167 31.3465 15.4167 50.8751V97.1251C15.4167 116.651 31.3458 132.583 50.875 132.583H97.1251C116.652 132.583 132.583 116.652 132.583 97.1251V50.8751C132.583 31.3459 116.651 15.4167 97.1251 15.4167H50.875ZM50.875 24.6668H97.1251C111.651 24.6668 123.333 36.3458 123.333 50.8751V97.1251C123.333 111.651 111.651 123.333 97.1251 123.333H50.875C36.3457 123.333 24.6667 111.651 24.6667 97.1251V50.8751C24.6667 36.3452 36.3452 24.6668 50.875 24.6668ZM104.833 37.0001C101.426 37.0001 98.6667 39.7597 98.6667 43.1668C98.6667 46.5738 101.426 49.3334 104.833 49.3334C108.24 49.3334 111 46.5738 111 43.1668C111 39.7597 108.24 37.0001 104.833 37.0001ZM74 43.1668C57.0268 43.1668 43.1667 57.0269 43.1667 74.0001C43.1667 90.9733 57.0268 104.833 74 104.833C90.9733 104.833 104.833 90.9733 104.833 74.0001C104.833 57.0269 90.9733 43.1668 74 43.1668ZM74 52.4168C85.9732 52.4168 95.5834 62.027 95.5834 74.0001C95.5834 85.9732 85.9732 95.5834 74 95.5834C62.0269 95.5834 52.4167 85.9732 52.4167 74.0001C52.4167 62.027 62.0269 52.4168 74 52.4168Z" fill="url(#paint0_linear_68_12)"/>
</g>
<defs>
<linearGradient id="paint0_linear_68_12" x1="74" y1="15.4167" x2="74" y2="132.583" gradientUnits="userSpaceOnUse">
<stop stop-color="#FFDF0A"/>
<stop offset="1" stop-color="#FF9201"/>
</linearGradient>
</defs>
</svg>
